<svg xmlns="http://www.w3.org/2000/svg" viewBox="0 0 512 512" width="512" height="512">
  <defs>
    <linearGradient id="grad1" x1="0%" y1="0%" x2="100%" y2="100%">
      <stop offset="0%" style="stop-color:#3b82f6;stop-opacity:1" />
      <stop offset="100%" style="stop-color:#2563eb;stop-opacity:1" />
    </linearGradient>
  </defs>
  
  <rect width="512" height="512" rx="100" fill="#f8fafc" />
  
  <path d="M256 120 C256 120 200 180 200 240 C200 300 256 400 256 400 C256 400 312 300 312 240 C312 180 256 120 256 120 Z" fill="url(#grad1)" />
  <path d="M256 400 L256 460" stroke="#475569" stroke-width="24" stroke-linecap="round" />
  
  <circle cx="180" cy="200" r="30" fill="#93c5fd" opacity="0.8" />
  <circle cx="332" cy="200" r="30" fill="#93c5fd" opacity="0.8" />
  <circle cx="256" cy="100" r="40" fill="#60a5fa" />
  
  <path d="M156 420 L356 420 C356 420 380 440 380 460 L132 460 C132 440 156 420 156 420 Z" fill="#1e293b" />
</svg>
